<?xml version="1.0" encoding="UTF-8"?>
<!DOCTYPE svg PUBLIC "-//W3C//DTD SVG 1.1//EN" "http://www.w3.org/Graphics/SVG/1.1/DTD/svg11.dtd">
<!-- Creator: CorelDRAW X7 -->
<svg xmlns="http://www.w3.org/2000/svg" xml:space="preserve" width="297mm" height="210mm" version="1.1" style="shape-rendering:geometricPrecision; text-rendering:geometricPrecision; image-rendering:optimizeQuality; fill-rule:evenodd; clip-rule:evenodd"
viewBox="0 0 29700 21000"
 xmlns:xlink="http://www.w3.org/1999/xlink"
 data-name="Layer 1">
 <defs>
  <style type="text/css">
   <![CDATA[
    .fil4 {fill:#2F2E41}
    .fil0 {fill:#3F3D56}
    .fil2 {fill:#575A89}
    .fil6 {fill:#5E8C61}
    .fil3 {fill:#A0616A}
    .fil5 {fill:#F2F2F2}
    .fil1 {fill:black;fill-opacity:0.101961}
   ]]>
  </style>
 </defs>
 <g id="Layer_x0020_1">
  <metadata id="CorelCorpID_0Corel-Layer"/>
  <g id="_2647696921440">
   <path class="fil0" d="M22939 15106c0,680 -3672,1231 -8202,1231 -4530,0 -8202,-551 -8202,-1231 0,-481 1841,-898 4523,-1100 1106,-83 2356,-130 3679,-130 544,0 1075,8 1589,23 3769,111 6613,609 6613,1207z"/>
   <path class="fil1" d="M16827 14974c0,-212 -1410,-384 -3148,-384 -1739,0 -3149,172 -3149,384 0,212 1410,384 3149,384 1738,0 3148,-172 3148,-384z"/>
   <ellipse class="fil0" cx="13665" cy="12077" rx="2977" ry="3175"/>
   <polygon class="fil2" points="17026,14365 16920,14947 17608,15053 18057,14789 18031,14365 "/>
   <path class="fil3" d="M13560 3438c0,0 -53,609 -186,635 -132,27 291,1085 291,1085l635 0 503 -132 -238 -582c0,0 -318,-424 -79,-768 238,-344 -926,-238 -926,-238z"/>
   <path class="fil1" d="M13560 3438c0,0 -53,609 -186,635 -132,27 291,1085 291,1085l635 0 503 -132 -238 -582c0,0 -318,-424 -79,-768 238,-344 -926,-238 -926,-238z"/>
   <path class="fil4" d="M12237 8095c0,0 -688,1323 -133,1587 556,265 688,238 688,318 0,79 -106,53 -53,185 53,132 -106,661 53,979 159,317 106,556 106,556 0,0 0,26 53,132 53,106 79,185 53,238 -27,53 -185,397 -27,476 159,80 979,132 1059,0 79,-132 -80,-211 0,-291 79,-79 132,-106 79,-159 -53,-53 -106,-714 -106,-714 0,0 133,-767 80,-873 -53,-106 -133,-212 -80,-291 53,-80 106,-53 133,-159 26,-106 79,-344 79,-344l291 -26 688 132c0,0 767,847 1614,1111 0,0 238,238 317,238 80,0 80,0 53,53 -26,53 -105,53 -53,106 53,53 133,-26 80,53 -53,79 -106,79 -53,132 53,53 -27,344 -27,371 0,26 -238,2513 -158,2566 79,53 1190,212 1270,0 79,-211 -53,-476 -53,-476 0,0 397,-3175 291,-3387 -106,-211 -476,-1164 -2461,-1772 0,0 -555,-106 -555,-186 0,-79 -53,-582 -159,-608 -106,-27 -715,-53 -715,-53l-767 238 -1058 -185 -529 53z"/>
   <path class="fil4" d="M13163 12540l-133 476c0,0 -105,767 27,952 104,146 289,324 633,355 4,-11 7,-22 8,-34 0,-53 -80,-688 -80,-688l-132 -661 -26 -186 -297 -214z"/>
   <path class="fil4" d="M17026 14815c0,0 -133,-132 -159,0 -27,132 -132,688 53,715 185,26 1958,291 2143,185 185,-106 529,-265 317,-344 -211,-80 -820,-318 -820,-318 0,0 -344,-450 -397,-476 -53,-26 -344,26 -476,132 -132,106 -661,106 -661,106z"/>
   <circle class="fil3" cx="14195" cy="3173" r="820"/>
   <path class="fil2" d="M14115 5026l-317 -344 -352 -688c0,0 -257,-80 -310,53 -53,132 -1005,555 -1005,555 0,0 238,2223 132,2434 -106,212 -291,1059 -132,1138 159,80 899,0 1137,106 239,106 927,106 1112,-27 185,-132 238,-238 423,-158 158,67 526,-2243 632,-2931 3,-16 4,-32 4,-48 0,-102 -50,-198 -133,-257 -238,-166 -665,-453 -741,-415 -106,52 -450,582 -450,582z"/>
   <path class="fil2" d="M15253 4920l0 0c127,32 221,139 236,269l214 1927c0,0 -530,1137 -794,370 -265,-767 344,-2566 344,-2566z"/>
   <path class="fil2" d="M15200 7301l582 -159c0,0 106,741 212,741 106,0 -371,423 -609,370 -238,-52 -582,-238 -608,-370 -27,-132 238,-688 238,-688l185 106z"/>
   <path class="fil4" d="M13575 3527c56,-123 46,-266 93,-393 67,-185 243,-309 440,-309 98,0 193,31 273,87 59,43 118,102 191,94 78,-9 147,-96 219,-64 79,35 58,178 139,211 42,17 92,-10 116,-48 22,-41 33,-86 34,-132 12,-113 22,-232 -27,-335 -7,-28 -11,-58 -11,-88 0,-6 0,-12 0,-18 0,-133 -10,-271 -76,-386 -75,-127 -211,-208 -354,-244 -143,-35 -293,-30 -439,-18 -243,21 -496,65 -687,216 -39,64 -71,134 -95,205 -20,73 -19,156 24,219 34,51 89,78 133,120 43,41 63,120 110,152 42,27 92,8 134,37 -285,583 -281,665 -217,694z"/>
   <path class="fil5" d="M14247 5422l80 -158c0,0 1164,344 1402,661 0,0 582,-370 900,-317l317 53 -979 873 -1243 -106 -477 -1006z"/>
   <path class="fil6" d="M14195 5264l-1085 1508 1561 767c0,0 146,79 258,0l1038 -476 979 -1402 -979 502c0,0 -106,-211 -317,-106l-1455 -793z"/>
   <path class="fil3" d="M15861 7936l212 -556c0,0 476,-608 212,-899 -265,-291 -556,846 -556,846l132 609z"/>
   <path class="fil3" d="M13419 7847l462 -374c0,0 717,-288 635,-672 -83,-385 -906,454 -906,454l-191 592z"/>
   <path class="fil1" d="M12276 5171l-26 0c0,0 -410,-489 -490,172 -79,662 -344,2858 344,2937 688,79 1178,-331 1178,-331 0,0 502,-767 317,-767 -89,0 -333,-40 -555,-27 -238,15 -451,82 -437,14 26,-133 410,-1813 -331,-1998z"/>
   <path class="fil2" d="M12237 4655l-106 -53c0,0 -424,80 -503,741 -79,662 -344,2858 344,2937 688,79 1614,-106 1614,-106 0,0 185,-1005 0,-1005 -185,0 -1138,132 -1111,0 26,-133 502,-2329 -238,-2514z"/>
   <polygon class="fil2" points="15478,7632 15770,7185 15954,7923 15478,8134 "/>
  </g>
 </g>
</svg>
